<svg xmlns="http://www.w3.org/2000/svg" xmlns:xlink="http://www.w3.org/1999/xlink" xmlns:avocode="https://avocode.com/" width="49" height="49" version="1.1" style=""><rect id="backgroundrect" width="100%" height="100%" x="0" y="0" fill="none" stroke="none"/><defs/><desc>Generated with Avocode.</desc><g style="" class="currentLayer"><g id="svg_1" class="selected"><title>icon</title><path d="M47.66797,19.71721l-14.2662,14.26802l-32.86755,14.47824l14.47666,-32.87204l14.26769,-14.26428c0.61981,-0.6215 1.6254,-0.6215 2.24842,0c0.62119,0.62275 0.62119,1.62771 0,2.24838l-13.84392,13.84676l-8.57643,19.46565l2.99904,2.99868l19.46766,-8.57269l13.84621,-13.84427c0.61981,-0.62234 1.6238,-0.62234 2.24842,0c0.62119,0.62067 0.62119,1.6302 0,2.24755zM27.49524,26.21642l13.33168,-13.33161c0.6229,-0.62441 1.62689,-0.62441 2.24979,0c0.6229,0.62067 0.6229,1.62563 0,2.24922l-13.33157,13.33203c-0.31151,0.30743 -0.71754,0.4653 -1.12507,0.4653c-0.4089,0 -0.81505,-0.15787 -1.12484,-0.4653c-0.61981,-0.62275 -0.61981,-1.62979 0,-2.24963zM24.01509,22.73458l13.33305,-13.33161c0.62164,-0.62275 1.62563,-0.62275 2.24991,0c0.62141,0.62026 0.62141,1.6273 0,2.24963l-13.33317,13.33286c-0.30991,0.30784 -0.71583,0.46447 -1.12495,0.46447c-0.40581,0 -0.81345,-0.15662 -1.12484,-0.46447c-0.62141,-0.62109 -0.62141,-1.63103 0,-2.25088zM20.53414,19.25316l13.33248,-13.33078c0.6229,-0.624 1.62861,-0.624 2.24991,0c0.6229,0.61984 0.6229,1.62522 0,2.25005l-13.3326,13.32995c-0.31071,0.31117 -0.71892,0.46571 -1.12473,0.46571c-0.40615,0 -0.81436,-0.15455 -1.12507,-0.46571c-0.62061,-0.61943 -0.62061,-1.62896 0,-2.24922z" fill="#000000" fill-opacity="1" id="svg_2"/><path d="M47.66797,19.71721l-14.2662,14.26802l-32.86755,14.47824l14.47666,-32.87204l14.26769,-14.26428c0.61981,-0.6215 1.6254,-0.6215 2.24842,0c0.62119,0.62275 0.62119,1.62771 0,2.24838l-13.84392,13.84676l-8.57643,19.46565l2.99904,2.99868l19.46766,-8.57269l13.84621,-13.84427c0.61981,-0.62234 1.6238,-0.62234 2.24842,0c0.62119,0.62067 0.62119,1.6302 0,2.24755zM27.49524,26.21642l13.33168,-13.33161c0.6229,-0.62441 1.62689,-0.62441 2.24979,0c0.6229,0.62067 0.6229,1.62563 0,2.24922l-13.33157,13.33203c-0.31151,0.30743 -0.71754,0.4653 -1.12507,0.4653c-0.4089,0 -0.81505,-0.15787 -1.12484,-0.4653c-0.61981,-0.62275 -0.61981,-1.62979 0,-2.24963zM24.01509,22.73458l13.33305,-13.33161c0.62164,-0.62275 1.62563,-0.62275 2.24991,0c0.62141,0.62026 0.62141,1.6273 0,2.24963l-13.33317,13.33286c-0.30991,0.30784 -0.71583,0.46447 -1.12495,0.46447c-0.40581,0 -0.81345,-0.15662 -1.12484,-0.46447c-0.62141,-0.62109 -0.62141,-1.63103 0,-2.25088zM20.53414,19.25316l13.33248,-13.33078c0.6229,-0.624 1.62861,-0.624 2.24991,0c0.6229,0.61984 0.6229,1.62522 0,2.25005l-13.3326,13.32995c-0.31071,0.31117 -0.71892,0.46571 -1.12473,0.46571c-0.40615,0 -0.81436,-0.15455 -1.12507,-0.46571c-0.62061,-0.61943 -0.62061,-1.62896 0,-2.24922z" fill="#555555" fill-opacity="1" id="svg_3"/></g></g></svg>