<svg xmlns="http://www.w3.org/2000/svg" xmlns:xlink="http://www.w3.org/1999/xlink" xmlns:avocode="https://avocode.com/" width="44" height="40" version="1.1" style=""><rect id="backgroundrect" width="100%" height="100%" x="0" y="0" fill="none" stroke="none"/><defs/><desc>Generated with Avocode.</desc><g style="" class="currentLayer"><g id="svg_1" class="selected" fill-opacity="1" fill="#055555"><title>icon</title><path d="M43.28735,11.66567l-21.43684,11.5614l-21.43696,-11.5614l21.43696,-11.56016zM39.30229,17.54794l3.98506,2.14868l-21.43684,11.55683l-21.43696,-11.55683l3.98518,-2.14868l17.45178,9.40982zM39.30229,25.57308l3.98506,2.14743l-21.43684,11.56265l-21.43696,-11.56265l3.98518,-2.14743l17.45178,9.41148z" fill="#055555" fill-opacity="1" id="svg_2"/><path d="M43.28735,11.66567l-21.43684,11.5614l-21.43696,-11.5614l21.43696,-11.56016zM39.30229,17.54794l3.98506,2.14868l-21.43684,11.55683l-21.43696,-11.55683l3.98518,-2.14868l17.45178,9.40982zM39.30229,25.57308l3.98506,2.14743l-21.43684,11.56265l-21.43696,-11.56265l3.98518,-2.14743l17.45178,9.41148z" fill="#055555" fill-opacity="1" id="svg_3"/></g></g></svg>