<?xml version="1.0" encoding="UTF-8"?>
<svg id="SVGDoc" width="52" height="36" xmlns="http://www.w3.org/2000/svg" version="1.1" xmlns:xlink="http://www.w3.org/1999/xlink" xmlns:avocode="https://avocode.com/" viewBox="0 0 52 36"><defs></defs><desc>Generated with Avocode.</desc><g><g><title>icon</title><path d="M0.73848,30.14747v-22.16437c0,-1.36432 1.10481,-2.48228 2.45716,-2.48062h10.81673v-1.44492c0,-0.99499 0.38177,-1.92268 1.08135,-2.62727c0.69969,-0.7075 1.62334,-1.09553 2.60685,-1.09553h6.29036c2.02858,0 3.68385,1.66676 3.68385,3.7228v1.44325h10.8165c1.3504,0 2.45739,1.11796 2.45739,2.48228v1.65388h-26.20674c-2.26742,0 -4.73969,1.55002 -5.74219,3.60813zM16.46964,5.50247h8.74775v-1.44492c0,-0.68756 -0.55046,-1.24218 -1.22875,-1.24218h-6.29036c-0.32627,0 -0.6356,0.12962 -0.86609,0.36767c-0.23014,0.23431 -0.36255,0.54672 -0.36255,0.87451zM41.9213,33.76266c-0.59498,1.22141 -2.1928,2.22097 -3.54286,2.22097h-35.29816c-1.35006,0 -1.96861,-1.00205 -1.36929,-2.22097l9.49219,-19.42202c0.59303,-1.22307 2.18834,-2.22554 3.53874,-2.22554h35.29781c1.35464,0 1.96884,1.00247 1.37169,2.22554z" fill="#000000" fill-opacity="1"></path><path d="M0.73848,30.14747v-22.16437c0,-1.36432 1.10481,-2.48228 2.45716,-2.48062h10.81673v-1.44492c0,-0.99499 0.38177,-1.92268 1.08135,-2.62727c0.69969,-0.7075 1.62334,-1.09553 2.60685,-1.09553h6.29036c2.02858,0 3.68385,1.66676 3.68385,3.7228v1.44325h10.8165c1.3504,0 2.45739,1.11796 2.45739,2.48228v1.65388h-26.20674c-2.26742,0 -4.73969,1.55002 -5.74219,3.60813zM16.46964,5.50247h8.74775v-1.44492c0,-0.68756 -0.55046,-1.24218 -1.22875,-1.24218h-6.29036c-0.32627,0 -0.6356,0.12962 -0.86609,0.36767c-0.23014,0.23431 -0.36255,0.54672 -0.36255,0.87451zM41.9213,33.76266c-0.59498,1.22141 -2.1928,2.22097 -3.54286,2.22097h-35.29816c-1.35006,0 -1.96861,-1.00205 -1.36929,-2.22097l9.49219,-19.42202c0.59303,-1.22307 2.18834,-2.22554 3.53874,-2.22554h35.29781c1.35464,0 1.96884,1.00247 1.37169,2.22554z" fill="#555555" fill-opacity="1"></path></g></g></svg>