<?xml version="1.0" encoding="UTF-8"?>
<svg id="SVGDoc" width="44" height="44" xmlns="http://www.w3.org/2000/svg" version="1.1" xmlns:xlink="http://www.w3.org/1999/xlink" xmlns:avocode="https://avocode.com/" viewBox="0 0 44 44"><defs></defs><desc>Generated with Avocode.</desc><g><g><title>icon</title><path d="M41.32162,25.71072c-1.4399,0.51224 -2.83676,1.76107 -3.24291,2.74235c-0.40524,0.98003 -0.298,2.85078 0.35774,4.23005c0.65598,1.37844 0.25852,3.42659 -0.8868,4.57197c-1.14544,1.14704 -3.1937,1.54421 -4.57294,0.88739c-1.37924,-0.65599 -3.2515,-0.76442 -4.23248,-0.35645c-0.9811,0.41046 -2.22679,1.80801 -2.73914,3.24628c-0.51167,1.43578 -2.24121,2.6011 -3.86135,2.6011c-1.6206,0 -3.34957,-1.16532 -3.86169,-2.6011c-0.51189,-1.43827 -1.75884,-2.83624 -2.74075,-3.24337c-0.98156,-0.40797 -2.85084,-0.30244 -4.23088,0.35354c-1.38016,0.65682 -3.42705,0.25965 -4.57294,-0.88739c-1.14567,-1.14538 -1.54266,-3.19352 -0.88657,-4.57197c0.65632,-1.37886 0.76275,-3.24878 0.35488,-4.22922c-0.40787,-0.97962 -1.80038,-2.23094 -3.23971,-2.74318c-1.43967,-0.51183 -2.60616,-2.24008 -2.60616,-3.86072c0,-1.62023 1.1665,-3.34931 2.60616,-3.85699c1.43932,-0.50975 2.83001,-1.76148 3.23788,-2.74318c0.40752,-0.98336 0.30327,-2.85327 -0.35305,-4.23296c-0.65609,-1.37928 -0.25909,-3.42617 0.88657,-4.57404c1.1459,-1.14621 3.19405,-1.5413 4.57294,-0.88531c1.37924,0.65682 3.24932,0.764 4.23088,0.35728c0.98087,-0.40589 2.22885,-1.80261 2.74075,-3.24171c0.51212,-1.4391 2.2411,-2.60608 3.86169,-2.60608c1.62014,0 3.34969,1.16698 3.86135,2.60608c0.51235,1.4391 1.75987,2.83665 2.74075,3.24171c0.9811,0.40672 2.85164,0.29954 4.23088,-0.35728c1.38016,-0.65599 3.42751,-0.2609 4.57294,0.88531c1.14532,1.14787 1.54278,3.19477 0.8868,4.57404c-0.65575,1.37886 -0.76115,3.2521 -0.35511,4.23379c0.40524,0.9846 1.80038,2.2326 3.24028,2.74235c1.43898,0.50767 2.60548,2.23675 2.60548,3.85699c0,1.62065 -1.1665,3.3489 -2.60548,3.86072zM30.12781,21.85872c0,-4.41867 -3.57342,-7.99357 -7.98409,-7.99357c-4.41971,0 -7.99358,3.5749 -7.99358,7.99357c0,4.4116 3.57388,7.98318 7.99358,7.98318c4.41067,0 7.98409,-3.57158 7.98409,-7.98318z" fill="#000000" fill-opacity="1"></path><path d="M41.32162,25.71072c-1.4399,0.51224 -2.83676,1.76107 -3.24291,2.74235c-0.40524,0.98003 -0.298,2.85078 0.35774,4.23005c0.65598,1.37844 0.25852,3.42659 -0.8868,4.57197c-1.14544,1.14704 -3.1937,1.54421 -4.57294,0.88739c-1.37924,-0.65599 -3.2515,-0.76442 -4.23248,-0.35645c-0.9811,0.41046 -2.22679,1.80801 -2.73914,3.24628c-0.51167,1.43578 -2.24121,2.6011 -3.86135,2.6011c-1.6206,0 -3.34957,-1.16532 -3.86169,-2.6011c-0.51189,-1.43827 -1.75884,-2.83624 -2.74075,-3.24337c-0.98156,-0.40797 -2.85084,-0.30244 -4.23088,0.35354c-1.38016,0.65682 -3.42705,0.25965 -4.57294,-0.88739c-1.14567,-1.14538 -1.54266,-3.19352 -0.88657,-4.57197c0.65632,-1.37886 0.76275,-3.24878 0.35488,-4.22922c-0.40787,-0.97962 -1.80038,-2.23094 -3.23971,-2.74318c-1.43967,-0.51183 -2.60616,-2.24008 -2.60616,-3.86072c0,-1.62023 1.1665,-3.34931 2.60616,-3.85699c1.43932,-0.50975 2.83001,-1.76148 3.23788,-2.74318c0.40752,-0.98336 0.30327,-2.85327 -0.35305,-4.23296c-0.65609,-1.37928 -0.25909,-3.42617 0.88657,-4.57404c1.1459,-1.14621 3.19405,-1.5413 4.57294,-0.88531c1.37924,0.65682 3.24932,0.764 4.23088,0.35728c0.98087,-0.40589 2.22885,-1.80261 2.74075,-3.24171c0.51212,-1.4391 2.2411,-2.60608 3.86169,-2.60608c1.62014,0 3.34969,1.16698 3.86135,2.60608c0.51235,1.4391 1.75987,2.83665 2.74075,3.24171c0.9811,0.40672 2.85164,0.29954 4.23088,-0.35728c1.38016,-0.65599 3.42751,-0.2609 4.57294,0.88531c1.14532,1.14787 1.54278,3.19477 0.8868,4.57404c-0.65575,1.37886 -0.76115,3.2521 -0.35511,4.23379c0.40524,0.9846 1.80038,2.2326 3.24028,2.74235c1.43898,0.50767 2.60548,2.23675 2.60548,3.85699c0,1.62065 -1.1665,3.3489 -2.60548,3.86072zM30.12781,21.85872c0,-4.41867 -3.57342,-7.99357 -7.98409,-7.99357c-4.41971,0 -7.99358,3.5749 -7.99358,7.99357c0,4.4116 3.57388,7.98318 7.99358,7.98318c4.41067,0 7.98409,-3.57158 7.98409,-7.98318z" fill="#555555" fill-opacity="1"></path></g></g></svg>